<svg xmlns="http://www.w3.org/2000/svg" viewBox="0 0 1200 800">
  <defs>
    <linearGradient id="heat" x1="0%" y1="100%" x2="100%" y2="0%">
      <stop offset="0%" stop-color="#020617" />
      <stop offset="40%" stop-color="#f97316" stop-opacity="0.8" />
      <stop offset="100%" stop-color="#facc15" stop-opacity="0.6" />
    </linearGradient>
  </defs>
  <rect width="1200" height="800" fill="#0f172a" />
  <path d="M160 640 C260 520 320 300 440 220 C540 160 680 200 780 320 C880 440 920 660 1040 680" fill="none" stroke="#f97316" stroke-width="18" stroke-linecap="round" opacity="0.6" />
  <path d="M200 660 C300 540 360 340 480 260 C580 200 720 240 820 360 C920 480 960 660 1060 700" fill="none" stroke="#facc15" stroke-width="14" stroke-linecap="round" opacity="0.4" />
  <rect x="420" y="320" width="360" height="220" rx="30" fill="url(#heat)" opacity="0.85" />
  <rect x="460" y="360" width="280" height="140" rx="20" fill="#0b1120" opacity="0.95" />
  <circle cx="520" cy="430" r="36" fill="#38bdf8" opacity="0.75" />
  <circle cx="620" cy="430" r="36" fill="#38bdf8" opacity="0.55" />
  <circle cx="720" cy="430" r="36" fill="#38bdf8" opacity="0.35" />
  <g opacity="0.35" stroke="#38bdf8" stroke-width="4" stroke-dasharray="12 12">
    <rect x="240" y="200" width="720" height="400" rx="48" />
    <line x1="360" y1="220" x2="360" y2="580" />
    <line x1="840" y1="220" x2="840" y2="580" />
  </g>
</svg>
